<?xml version="1.0" encoding="iso-8859-1"?>
<!-- Uploaded to: SVG Repo, www.svgrepo.com, Generator: SVG Repo Mixer Tools -->
<svg fill="#000000" height="800px" width="800px" version="1.1" id="Layer_1" xmlns="http://www.w3.org/2000/svg" xmlns:xlink="http://www.w3.org/1999/xlink" 
	 viewBox="0 0 512 512" xml:space="preserve">
<g transform="translate(1 1)">
	<g>
		<g>
			<path d="M307.068,181.237c5.207,0,8.678-3.471,8.678-8.678v-69.424c0-5.207-3.471-8.678-8.678-8.678H202.932
				c-5.207,0-8.678,3.471-8.678,8.678v69.424c0,5.207,3.471,8.678,8.678,8.678H307.068z M211.61,111.814h86.78v52.068h-86.78
				V111.814z"/>
			<path d="M272.356,129.169h-34.712c-5.207,0-8.678,3.471-8.678,8.678s3.471,8.678,8.678,8.678h34.712
				c5.207,0,8.678-3.471,8.678-8.678S277.563,129.169,272.356,129.169z"/>
			<path d="M463.271,493.644h-34.712V467.61c0-5.207-3.471-8.678-8.678-8.678h-52.907c-3.925-20.015-21.232-34.712-42.55-34.712
				h-18.31l-15.626-52.086c14.369-0.389,25.258-11.523,25.258-26.015c0-14.753-11.281-26.034-26.034-26.034h-0.857l17.12-55.47
				c36.744-18.562,61.838-56.617,61.838-100.733v-74.63c0-12.149,3.471-23.431,10.414-32.976l11.281-16.488
				c5.207-7.81,6.075-18.224,1.736-26.902C386.905,4.207,377.359-1,367.814-1H141.319c-9.546,0-18.224,5.207-23.431,13.885
				c-4.339,9.546-3.471,19.959,2.603,27.769l11.281,16.488c6.942,9.546,10.414,20.827,10.414,32.108v74.63
				c0,44.116,25.095,82.171,61.838,100.733l17.12,55.47h-0.857c-14.753,0-26.034,11.281-26.034,26.034s11.281,26.034,26.034,26.034
				h0.087l-15.62,52.068h-19.178c-21.318,0-38.625,14.697-42.55,34.712H90.119c-5.207,0-8.678,3.471-8.678,8.678v26.034H46.729
				c-5.207,0-8.678,3.471-8.678,8.678c0,5.207,3.471,8.678,8.678,8.678h43.39h329.763h43.39c5.207,0,8.678-3.471,8.678-8.678
				C471.949,497.115,468.478,493.644,463.271,493.644z M159.542,163.881V90.119c0-15.62-5.207-30.373-13.885-42.522l-11.281-16.488
				c-2.603-3.471-2.603-6.942-0.868-9.546c1.736-3.471,4.339-5.207,7.81-5.207h227.363c3.471,0,6.075,1.736,7.81,4.339
				c1.736,3.471,0.868,6.942-0.868,9.546l-11.281,16.488c-9.546,12.149-13.885,26.902-13.885,42.522v74.63
				c0,38.33-22.297,71.194-54.696,86.415c-0.281,0.107-0.562,0.224-0.843,0.365c-26.034,11.281-54.671,11.281-79.837,0
				c-0.039-0.01-0.078-0.018-0.118-0.028C182.173,235.565,159.542,202.496,159.542,163.881z M224.704,272.603
				c9.635,2.663,19.793,4.092,30.296,4.092c10.16,0,19.996-1.339,29.35-3.836l-14.597,47.226H239.38L224.704,272.603z
				 M211.61,346.119c0-5.207,3.471-8.678,8.678-8.678h13.017h43.39h13.017c5.207,0,8.678,3.471,8.678,8.678
				s-3.471,8.678-8.678,8.678H278.43h-45.993h-12.149C215.081,354.797,211.61,351.325,211.61,346.119z M237.644,372.153h32.976
				l15.62,52.068h-63.349L237.644,372.153z M185.576,441.576h26.034h86.78h26.902c11.281,0,20.827,6.942,24.298,17.356H161.278
				C164.749,448.519,174.295,441.576,185.576,441.576z M98.797,493.644v-17.356h52.068h208.271h52.068v17.356H98.797z"/>
		</g>
	</g>
</g>
</svg>